/* XPM */
static char *_f2c7dacb2fe4a0a8a6175e5ec6bb213gpSs9EN1E7trZAAH[] = {
/* columns rows colors chars-per-pixel */
"32 32 248 2 ",
"   c #000D1F",
".  c #37140F",
"X  c #0B3018",
"o  c #010D21",
"O  c #0C0E24",
"+  c #0E0C28",
"@  c #190C28",
"#  c #0B1926",
"$  c #161528",
"%  c #0A1833",
"&  c #2D0D2E",
"*  c #350C2E",
"=  c #3A0A2D",
"-  c #27152B",
";  c #36152D",
":  c #391933",
">  c #052827",
",  c #03382C",
"<  c #0D2731",
"1  c #312F2F",
"2  c #39293B",
"3  c #56170E",
"4  c #661C06",
"5  c #65191A",
"6  c #752B11",
"7  c #772915",
"8  c #590F2C",
"9  c #45152D",
"0  c #581326",
"q  c #460C34",
"w  c #4C0C35",
"e  c #540D34",
"r  c #471732",
"t  c #591535",
"y  c #671826",
"u  c #671839",
"i  c #72143E",
"p  c #4F302F",
"a  c #463B2A",
"s  c #462637",
"d  c #712C31",
"f  c #13731F",
"g  c #024731",
"h  c #005934",
"j  c #2F583A",
"k  c #066E2D",
"l  c #0B712C",
"z  c #0D7A2B",
"x  c #016236",
"c  c #086732",
"v  c #056A31",
"b  c #0A7534",
"n  c #41581E",
"m  c #534B2A",
"M  c #6E4A2C",
"N  c #706727",
"B  c #101E44",
"V  c #06274C",
"C  c #2F2651",
"Z  c #03356B",
"A  c #0F366E",
"S  c #7F1D45",
"D  c #4F2649",
"F  c #783946",
"G  c #533861",
"H  c #3A6542",
"J  c #095866",
"K  c #0F597D",
"L  c #36576D",
"P  c #2E6D7E",
"I  c #47564A",
"U  c #6B4D4A",
"Y  c #517049",
"T  c #6C6E4C",
"R  c #8E2A09",
"E  c #883716",
"W  c #A52C0D",
"Q  c #861738",
"!  c #942B2F",
"~  c #88263E",
"^  c #B03730",
"/  c #C62E3F",
"(  c #84471D",
")  c #9C4B15",
"_  c #A0531A",
"`  c #A9472D",
"'  c #A85A30",
"]  c #9D6E34",
"[  c #B56D31",
"{  c #A77735",
"}  c #9C1D4B",
"|  c #912741",
" . c #AC2B47",
".. c #B8294B",
"X. c #A83548",
"o. c #B23748",
"O. c #CD3452",
"+. c #D23452",
"@. c #92514B",
"#. c #965658",
"$. c #B14B54",
"%. c #B85D56",
"&. c #8A754E",
"*. c #AC685A",
"=. c #AE506F",
"-. c #937273",
";. c #CA4A55",
":. c #CF5050",
">. c #D95B5A",
",. c #E84C5E",
"<. c #F74E5C",
"1. c #EA575B",
"2. c #C9655C",
"3. c #D27354",
"4. c #EF695E",
"5. c #D85564",
"6. c #F65C64",
"7. c #CB7368",
"8. c #D97961",
"9. c #F86D61",
"0. c #ED756F",
"q. c #F77568",
"w. c #10950E",
"e. c #148C1D",
"r. c #1C9713",
"t. c #2E8D13",
"y. c #279916",
"u. c #1EA507",
"i. c #23A604",
"p. c #26A707",
"a. c #34A809",
"s. c #32AE0E",
"d. c #3EB400",
"f. c #38B306",
"g. c #138623",
"h. c #128B26",
"j. c #208C28",
"k. c #43B502",
"l. c #4CBD03",
"z. c #49B909",
"x. c #4EB510",
"c. c #52B52F",
"v. c #5DC70C",
"b. c #5BC014",
"n. c #6AD304",
"m. c #76D906",
"M. c #69CB11",
"N. c #7EE205",
"B. c #B08332",
"V. c #D89238",
"C. c #96CA0D",
"Z. c #8CD705",
"A. c #A5D30E",
"S. c #84E304",
"D. c #99E206",
"F. c #93E72F",
"G. c #98E931",
"H. c #978D5A",
"J. c #9F945C",
"K. c #B68742",
"L. c #A2975E",
"P. c #AC9C69",
"I. c #B7A66C",
"U. c #CB8847",
"Y. c #D6A956",
"T. c #DD8568",
"R. c #CA9A66",
"E. c #D7956E",
"W. c #DA8C7D",
"Q. c #EC8766",
"!. c #FA8868",
"~. c #FB9469",
"^. c #FD9A6D",
"/. c #F09371",
"(. c #FD9971",
"). c #D1A96B",
"_. c #EBA96E",
"`. c #FBA76D",
"'. c #E8B968",
"]. c #FCB76B",
"[. c #E6AB7D",
"{. c #FCA773",
"}. c #E3BD72",
"|. c #FEBA73",
" X c #FBB875",
".X c #D9C35F",
"XX c #D5C269",
"oX c #DCC676",
"OX c #E8C96A",
"+X c #FDC76B",
"@X c #FDD36C",
"#X c #ECC577",
"$X c #FDC475",
"%X c #FFC07B",
"&X c #FCD977",
"*X c #FDE479",
"=X c #124787",
"-X c #034D98",
";X c #026891",
":X c #356986",
">X c #0056A6",
",X c #0058AC",
"<X c #0172A7",
"1X c #0F6DB1",
"2X c #0867B8",
"3X c #2B6DB0",
"4X c #466186",
"5X c #66618B",
"6X c #6F7198",
"7X c #1974C5",
"8X c #9A7786",
"9X c #088292",
"0X c #B58990",
"qX c #CF928A",
"wX c #F6898D",
"eX c #F99899",
"rX c #F7B18E",
"tX c #C5AEAD",
"yX c #D2BCBE",
"uX c #FDB7A0",
"iX c #8FCB8B",
"pX c #AADD8B",
"aX c #BEE4A4",
"sX c #FCDB89",
"dX c #FDCF95",
"fX c #E3D998",
"gX c #FFE480",
"hX c #FBE99A",
"jX c #CEF2A7",
"kX c #FCE3A6",
"lX c #FCEAA5",
"zX c #FCECAC",
"xX c #FBF2AE",
"cX c #FAECB6",
"vX c #FAF1B5",
"bX c #FDF3BC",
"nX c #ADBDD6",
"mX c #A8D9EC",
"MX c #A7E2F1",
"NX c #D1C1C4",
"BX c #FBEFCD",
"VX c #FBF5C3",
"CX c #FCF9C5",
"ZX c #FAFBD6",
"AX c #F8F4E3",
"SX c #FAFDE5",
"DX c #F7FFEA",
"FX c #F9FFEB",
/* pixels */
"s.d.k.a.n a ~ ] ] ] { { N m 1 - ; o o o 9 ..- @ o O X X p.d.d.a.",
"r.i.i.n t } +.d p M B.V.B.a o o o o o   o ; O o o o o # n i.i.r.",
"z s.l.t.s r ..:.[ ' 1 - - $ o o o o o o o o o o o o o # n l.f.z ",
"n.m.N 1 $ u t ~ r - O # a a r  .X.X.X.X.X. .| - O o o + p m.m.n.",
"G.G.U S - ; ~ 9 o o $ M m d +.q.%X%X%X|.].6.<.O. .- % % < x.F.G.",
"jXjX:XB - | 9 o O O | ; d ,.wXBXZXZXZXZXsX+X].6.<.$.A V V P aXjX",
"m.z.J B D : - $ | ; r X.T.cXAXFXFXDXFXSXhX*X+X].~.8.=XZ V J x.m.",
"k.r.J C A B #.s  .r o.|.BXFXFXFXFXFXFXSXhX*X+X].^.W.1X-X=XK g.k.",
"l.y.;XV Z B %.p  .r O.$XZXFXDXFXFXFXFXSXhX&X+X].^.W.3X2X-X;Xj.l.",
"p.h.;XC =X-.Q.8.8.s ;.$XZXFXFXFXDXDXFXSXhX&X+X].^./.0X1X>X<Xz p.",
"e.g.<X-X1XqX~.(.$XT ).gXbXSXFXFXDXDXFXZXhX*X&X+X^.~.W.7X>X<Xb g.",
"l.p.9X>X2X0X{.#XP.H.J.L.L.fXCXVXVXVXbXI.J.L.J.L.}.{.qX7X>X<Xg.k.",
"b.p.9X>X2X0X).I 2 2 + O O @.`.@X@X].Q.2 + + 1 2 I I.qX7X,X<Xg.z.",
"pXiX:XZ 3XqX&.U #.U 2 2 * u %.+X&X3.i w & 2 U #.U &.E.6XZ K iXpX",
"fXkXI.1 5X[.!.$.D :XL L 4XG @.dXlX*.t 5XL L :XD @.0.`.7.1 P.kXhX",
".X>.1.s 5X[. XT.2.yXtXtXtX5.>.kXbX8.O.qXtXtXNX7.8.{.].7.s >.;._.",
"oX1.,.r 5XrXVXzX&X(.eXeXrX!.9.zXbX!.6.$XrXeX(.$XlXVX|.7.: ,.,.[.",
"XXuXeX@.8XrXBXFXvXzXSXFXxX!.9.zXbX!.6.sXZXSXzXzXSXZX$XT.@.wXuX#X",
"XXlX0._./. XhXvXSXFXSXvXsX~.~.zXbX^.q. XlXZXFXSXvXlX|.(.`.5.kX#X",
"R.|.5./.*.>.^.&XhXlXhX&XsXdX].xXVX|.uXdX&XhXlXlX&X`.4.%._.5. X_.",
"Y R.Q.'.F ..q.(.(.9.!.&X).#.%.eXrX2.#.R.&X~.9.^.{.q.O.F '.Q.E.T ",
"v H R.Q.s t O.q.6./ ` { M @ * u u 9 @ d { ' ^ ,.4.^ u s _.|.*.c ",
"e.v H j # q i ! 3.7 . 3 4 4 0 * * 9 3 4 4 . 4 3.` y q ; ;.%.j l ",
"c.g.x x > q e 7 3.E &.m y $.=.=.=.=.=.| p &.7 3.E e w # j j l c.",
"M.f.z x > * w 5 d 7 '.oX2.0XmXMXMXMXnX=.R.OX( d 6 e q # h v r.v.",
"Z.l.a.l h # * 0 e 6 Y.*X|.!.wXeXeXeXwX(.&X'.7 0 5 q @ , h l x.C.",
"l.d.d.y.v , $ = w 5 E OX*X].` Q Q ! U.&X&X_ 5 e 9 @ , h v y.d.k.",
"l.d.d.d.y.v g # * w 7 [ OX*XK.5 3 ( OX&XU.E 8 = $ , x v y.k.C.C.",
"A.Z.n.f.f.y.l g # q y 6 _ Y.&XK.( '.&X[ R 5 w $ g v e.y.f.n.D.D.",
"D.S.v.i.g.z.a.l g $ @ 0 6 ) U.K.6 ' ' R 5 = $ g v e.a.g.i.b.N.S.",
"x.n.v.i.w.i.i.a.z h > @ 0 W W d 0 R W y * # g k y.u.u.w.u.v.m.x.",
"M.m.S.f.u.v.z.z.y.b f > $ 8 8 w w e t - % f b e.z.z.v.p.s.N.m.M."
};
