/* XPM */
static char *bd65e73abe424834f2ce63eb1c35f7a21rlwDM8bHwcI5I67[] = {
/* columns rows colors chars-per-pixel */
"32 32 162 2 ",
"   c #28111F",
".  c #2A1220",
"X  c #2F1929",
"o  c #321C27",
"O  c #3E1B27",
"+  c #311C29",
"@  c #2A1D32",
"#  c #35212F",
"$  c #28253D",
"%  c #352434",
"&  c #392837",
"*  c #3C2D3D",
"=  c #3D303F",
"-  c #431D27",
";  c #441E28",
":  c #442731",
">  c #4C2C32",
",  c #432C39",
"<  c #41313F",
"1  c #742C2E",
"2  c #2A2C47",
"3  c #3B2E42",
"4  c #3D3041",
"5  c #2C3251",
"6  c #2A375A",
"7  c #29395D",
"8  c #453542",
"9  c #493842",
"0  c #473D4D",
"q  c #493D4D",
"w  c #57464C",
"e  c #59464E",
"r  c #4C4254",
"t  c #47415A",
"y  c #4C465C",
"u  c #5A4B53",
"i  c #504758",
"p  c #524A5A",
"a  c #655B5F",
"s  c #4A4661",
"d  c #4E4962",
"f  c #554F63",
"g  c #5F5861",
"h  c #605760",
"j  c #645A61",
"k  c #695D67",
"l  c #6C616A",
"z  c #626174",
"x  c #7B6E73",
"c  c #72707F",
"v  c #973837",
"b  c #9D3B3B",
"n  c #A43C38",
"m  c #A63E3A",
"M  c #B03A38",
"N  c #93432F",
"B  c #A74C2F",
"V  c #A54C33",
"C  c #A84E32",
"Z  c #B94438",
"A  c #C4573B",
"S  c #D85B3C",
"D  c #D4633B",
"F  c #9F4241",
"G  c #A94341",
"H  c #B9524C",
"J  c #82767B",
"K  c #C55E4E",
"L  c #D76946",
"P  c #C1746C",
"I  c #C97975",
"U  c #CE847E",
"Y  c #EA8260",
"T  c #636A89",
"R  c #6A7192",
"E  c #6A7699",
"W  c #727B9B",
"Q  c #817C8C",
"!  c #7A85A2",
"~  c #7F8BA7",
"^  c #8E868C",
"/  c #918589",
"(  c #978D91",
")  c #988F92",
"_  c #9C9394",
"`  c #9C9599",
"'  c #838CA7",
"]  c #848EAA",
"[  c #888FAA",
"{  c #8C94AD",
"}  c #9097AF",
"|  c #9199AE",
" . c #8D96B0",
".. c #8699B3",
"X. c #8C9DB4",
"o. c #9097B1",
"O. c #929BB2",
"+. c #8FA2B4",
"@. c #8EA1B9",
"#. c #90A2B4",
"$. c #9CA3B7",
"%. c #92A3B9",
"&. c #99A6B9",
"*. c #96A8BB",
"=. c #9BACBD",
"-. c #9FB1BE",
";. c #B5ADAC",
":. c #A0B1BF",
">. c #B7B1B2",
",. c #BBB4B1",
"<. c #DD9282",
"1. c #D7A199",
"2. c #F9A782",
"3. c #FEB18C",
"4. c #DDA9A2",
"5. c #E6BFB7",
"6. c #E9C8BF",
"7. c #A2B1C1",
"8. c #ADB5C7",
"9. c #AABDC6",
"0. c #AFB7C8",
"q. c #B5B8C7",
"w. c #B1B9C9",
"e. c #BECDD3",
"r. c #BED4D6",
"t. c #BED5D8",
"y. c #CCC7C3",
"u. c #CCC8C4",
"i. c #D1CCC7",
"p. c #C1CFD2",
"a. c #C1D2D4",
"s. c #CCD5D5",
"d. c #CFD8D5",
"f. c #C1D7D8",
"g. c #CBD9D9",
"h. c #D6D5D5",
"j. c #D1DAD6",
"k. c #DFDBD6",
"l. c #D2DAD8",
"z. c #DCDBD9",
"x. c #EDCFC7",
"c. c #F8D6C4",
"v. c #E0DDD7",
"b. c #D6E0DE",
"n. c #E4E5DE",
"m. c #DCE5E1",
"M. c #DDEBE6",
"N. c #E4E7E4",
"B. c #E0EBE7",
"V. c #EAE9E4",
"C. c #ECEDE9",
"Z. c #ECF2EB",
"A. c #F9F1E6",
"S. c #F6F6EE",
"D. c #FAF7EE",
"F. c #F7F8EF",
"G. c #F6F7F0",
"H. c #F7FAF1",
"J. c #F9FCF3",
"K. c #F9FCF4",
"L. c #FFFFF6",
"P. c #FFFFF9",
/* pixels */
"7 7 5 + + + + + + + + + + + + + + + + + + + + + + o o + + 2 7 7 ",
"7 2 r ;.,.,.,.,.,.,.,.,.,.,.,.,.,.,.,.,.,.,.,.,.,.,.,.,.;.p $ 6 ",
"7 $ u S.L.Z.m.m.m.m.m.m.m.m.m.m.m.m.m.m.m.m.m.m.m.m.B.L.L.l @ 6 ",
"7 $ u n.s.7.+.%.%.%.%.%.%.%.%.%.%.%.%.%.%.%.%.%.@.@.*.e.m.k @ 6 ",
"7 $ e s.*.z q q q q q q q q q q q q q q q q 0 0 0 0 f ..r.g @ 6 ",
"7 $ w s.*.y X 3 * 3 3 3 3 3 3 3 3 3 3 3 3 3 3 * 3 # * X.r.h @ 6 ",
"7 $ w d.*.i * T R W W W W W W W W W W W W W W W E t 4 X.r.j @ 6 ",
"7 $ w j.=.i 3 W 9.e.a.p.a.a.a.a.a.a.a.a.r.r.r.e.X.y 4 +.t.j @ 6 ",
"7 $ w j.=.i 3 ! b.F.H.J.J.J.K.K.K.J.J.J.J.H.H.Z.=.s 4 +.t.j @ 6 ",
"7 $ w j.=.i 3 ' S.L.F.v.k.k.k.k.k.k.k.k.v.J.L.L.8.s 4 +.r.j @ 6 ",
"7 $ e j.=.i 3 [ S.P.i.9 * , , , , , , , q z.P.L.8.d 4 %.r.j @ 6 ",
"7 $ e j.=.i 3 { S.P.y.: N C C B B C V 1 , h.P.L.0.d 4 %.r.j @ 6 ",
"7 $ e j.=.i 3 { S.P.u.> D S L 2.3.Y S m , h.P.L.0.d 4 #.r.j @ 6 ",
"7 $ e j.-.i 3 { S.P.u.> D K P A.P.1.H b , h.P.L.w.d 4 #.r.j @ 6 ",
"7 $ w j.-.i 3 { S.P.u.> L c.A.L.L.F.6.F , h.P.L.w.d 4 +.r.j @ 6 ",
"7 $ w j.-.i 3  .G.P.y.> L <.4.D.P.6.U b , h.P.L.w.d 4 #.r.j @ 6 ",
"7 $ w j.-.i 3 o.G.P.y.> A Z H 5.x.I M b , h.P.L.w.d 4 #.r.j @ 6 ",
"7 $ w j.-.i 3 o.S.P.y.: v m m G G m m v , h.P.L.w.d = #.r.j @ 6 ",
"7 $ w j.:.i 4 } S.P.y.# - ; - - - - ; O & h.P.L.w.d 4 %.r.j @ 6 ",
"7 $ w j.7.i 4 O.G.L.n.` ) _ ) ) ) ) ) ( ` V.L.L.w.d 4 #.r.j @ 6 ",
"7 $ e j.:.i 4 O.S.D.S.J.P.P.P.P.P.P.P.P.P.L.L.L.w.d = +.r.j @ 6 ",
"7 $ e j.-.i 8 $.V.x u / L.L.L.L.L.L.L.L.L.L.L.L.w.d 4 +.r.a @ 7 ",
"7 $ e j.=.i % c y.J 9 9 >.L.L.L.L.L.L.L.L.L.L.Z.7.d 4 +.r.a @ 6 ",
"7 $ e j.=.i   w z.Z.^   l K.L.L.L.L.L.L.L.L.L.M.*.d 3 +.r.a @ 6 ",
"7 $ e j.-.i . < { &.z . k J.L.L.L.L.L.L.L.L.L.M.*.d 3 +.f.a @ 6 ",
"7 $ e j.:.i + s T p * % Q J.L.L.L.L.L.L.L.L.L.M.*.d 4 +.f.a @ 6 ",
"7 $ e j.:.i 3 E  .r 3 f q.L.L.L.L.L.L.L.L.L.L.M.*.d 4 %.f.a @ 6 ",
"7 $ e l.:.i 3 ' N.| ! $.G.L.L.L.L.L.L.L.L.L.L.B.*.d 4 %.f.j @ 6 ",
"7 $ e l.7.i 3 [ S.C.N.C.L.L.L.L.L.L.L.L.L.L.L.B.*.d 4 %.f.j @ 6 ",
"7 $ e l.7.i 3 ] m.L.L.L.L.L.L.L.L.L.L.L.L.L.L.B.*.d 3 %.f.j @ 6 ",
"7 $ e j.:.i 3 ~ g.J.L.L.L.L.L.L.L.L.L.L.L.L.L.M.*.d 3 %.f.a @ 6 ",
"7 $ e j.7.p 3 ~ g.K.L.L.L.L.L.L.L.L.L.L.L.L.L.M.*.d * %.f.a @ 6 "
};
