/* XPM */
static char *_d0a01973c2e4d60c63a558f7c1bcb7bsEm0QumjeH97E92x[] = {
/* columns rows colors chars-per-pixel */
"32 32 222 2 ",
"   c #05483F",
".  c #0B4F3C",
"X  c #0C513B",
"o  c #155637",
"O  c #145B36",
"+  c #13563D",
"@  c #145C3B",
"#  c #1C5D3A",
"$  c #285C38",
"%  c #0C643E",
"&  c #1C6734",
"*  c #14643E",
"=  c #1A643A",
"-  c #13693E",
";  c #1B6B3D",
":  c #1A7235",
">  c #16743B",
",  c #1D713B",
"<  c #3C7A2C",
"1  c #286737",
"2  c #236A36",
"3  c #376C38",
"4  c #237234",
"5  c #297234",
"6  c #257C35",
"7  c #2B7C33",
"8  c #26773A",
"9  c #2D7438",
"0  c #257F3E",
"q  c #2E793C",
"w  c #387A36",
"e  c #357F38",
"r  c #467B33",
"t  c #497D38",
"y  c #053C43",
"u  c #044E43",
"i  c #0B4B42",
"p  c #035343",
"a  c #0A5242",
"s  c #055A43",
"d  c #0C5E43",
"f  c #035349",
"g  c #0F5648",
"h  c #025949",
"j  c #095B48",
"k  c #115444",
"l  c #1D5642",
"z  c #155D43",
"x  c #156240",
"c  c #1C6B42",
"v  c #177843",
"b  c #206E42",
"n  c #297743",
"m  c #2D802D",
"M  c #3B872F",
"N  c #3D942E",
"B  c #2B8334",
"V  c #23843C",
"C  c #2E8138",
"Z  c #298B39",
"A  c #338734",
"S  c #338935",
"D  c #3B8D33",
"F  c #328438",
"G  c #398139",
"H  c #348D3C",
"J  c #3A8D3B",
"K  c #279038",
"L  c #2C903E",
"P  c #2C983D",
"I  c #369331",
"U  c #3B9232",
"Y  c #369A35",
"T  c #3A9C33",
"R  c #38933B",
"E  c #3FA02B",
"W  c #3DA332",
"Q  c #3AA834",
"!  c #44882E",
"~  c #4C8B2F",
"^  c #46962D",
"/  c #47962E",
"(  c #57992E",
")  c #438D34",
"_  c #458838",
"`  c #429333",
"'  c #499333",
"]  c #459C34",
"[  c #4C9E33",
"{  c #43933A",
"}  c #549733",
"|  c #559D33",
" . c #599B34",
".. c #599C38",
"X. c #619639",
"o. c #43A22D",
"O. c #4AA32D",
"+. c #44AA2C",
"@. c #4BAC2E",
"#. c #52A42B",
"$. c #53AC2C",
"%. c #59AD2C",
"&. c #4EB22D",
"*. c #5AB427",
"=. c #5CBC27",
"-. c #54B42C",
";. c #5AB52C",
":. c #55B82B",
">. c #5CBB2B",
",. c #42A432",
"<. c #4BA534",
"1. c #43AA33",
"2. c #4BAC32",
"3. c #4FA83C",
"4. c #54A533",
"5. c #5CA631",
"6. c #54AC32",
"7. c #5CAA33",
"8. c #52A33A",
"9. c #55AD39",
"0. c #59AE3A",
"q. c #4FB234",
"w. c #53B231",
"e. c #5BB332",
"r. c #56BB32",
"t. c #5CBB31",
"y. c #59B13A",
"u. c #66A52B",
"i. c #63AA28",
"p. c #6BAC2E",
"a. c #62BD26",
"s. c #6ABE26",
"d. c #63B42B",
"f. c #6BB42C",
"g. c #63BC2C",
"h. c #6ABC2B",
"j. c #72B629",
"k. c #72BB2B",
"l. c #7BBF2B",
"z. c #62A335",
"x. c #64AD33",
"c. c #6CAA34",
"v. c #65AD39",
"b. c #76AC33",
"n. c #72A33D",
"m. c #64B433",
"M. c #6BB633",
"N. c #61BE31",
"B. c #6DBC33",
"V. c #69B33B",
"C. c #6AB939",
"Z. c #77B737",
"A. c #74BC33",
"S. c #5FC326",
"D. c #5EC12B",
"F. c #66C426",
"G. c #6CC526",
"H. c #67C925",
"J. c #6DCA25",
"K. c #64C12B",
"L. c #6CC42B",
"P. c #6DC929",
"I. c #73C426",
"U. c #7CC725",
"Y. c #73CB26",
"T. c #7ACD25",
"R. c #72C42B",
"E. c #7BC52A",
"W. c #74CB2A",
"Q. c #7ACB2A",
"!. c #74D022",
"~. c #7DD325",
"^. c #7DD129",
"/. c #6DC332",
"(. c #6BCA30",
"). c #75C332",
"_. c #7BC634",
"`. c #7EC935",
"'. c #79C33B",
"]. c #7FCC39",
"[. c #198944",
"{. c #258241",
"}. c #2B8544",
"|. c #2B8E42",
" X c #398A41",
".X c #349340",
"XX c #84BF31",
"oX c #80C827",
"OX c #8FCE25",
"+X c #82C52A",
"@X c #89C729",
"#X c #83CA2C",
"$X c #8BCC2B",
"%X c #83D524",
"&X c #86D727",
"*X c #8AD922",
"=X c #86D32C",
"-X c #8CD42B",
";X c #96D72B",
":X c #93D32D",
">X c #9BD62D",
",X c #81C234",
"<X c #84CB33",
"1X c #8BCF32",
"2X c #85CC39",
"3X c #8CD232",
"4X c #89D137",
"5X c #94D834",
"6X c #9ADB34",
"7X c #95D53A",
"8X c #97D838",
"9X c #A5DF27",
"0X c #A1DD34",
"qX c #9FE12F",
"wX c #A3E324",
"eX c #A6E12B",
"rX c #A6E236",
"tX c #AAE535",
"yX c #ADE33A",
"uX c #B0E43C",
"iX c #A6DB41",
"pX c #BFEA41",
/* pixels */
"% L 6.;.g.e.S @.Y.Y.-.H.!.s.-.Y.>.@.^.~.U u s V e.&.>.@.] &.x.9 ",
"t c.i.:X8X+X;.>.-.Y.J.>.S.T.=.*.F.F.J.S.$.1 3 _ #.@.&.F.:XA.b.^ ",
"B.qX@Xp.4X-Xf.o.Y.>.K.Q.g.$.@.J.-.#.L.:.N z._.<X| o.Y.o.5.8X6X] ",
"9.6X4.G A.-X_ B >.;.2.P.L.K T F.2.V e.g.6 { 3XqXe T Y.T q 3X).] ",
"d ; > X ; n a A w.>.@.1.>.-.$.-.>.@.,.N.S . c n + N >.2.X * v d ",
"3 3 . 1 .._ 4 7.2X/.;.).<XK.B.2X/.>.2.`.6.O 2 $ o z.4X/.w 3 t $ ",
"#Xh.%.1.2.I.;.2.L.&XK.w.R.K.@.h.-XK.g.Q.D.-.d.s.2.1.L.-Xj.k.;.+X",
"g.~.K.W.P.H.P.Q.T.Y.^.W.F.P.W.W.P.Q.Q.W.J.^.%XY.Y.L.J.,.8 %.P.6.",
"; O.:.W.W.T.%XT.>.P.^.P.J.*XY.P.I.Q.<Xd.P.J.H.T.%XJ.J.h.* d c @ ",
"n.XXd.;.t.>.d.Q.E.h.>.-.=.J.>.;.g.$X0X:Xd.;.>.a.H.-.-.L.N @ + 1 ",
"/.tX,XD T.K.U %.L.Q.>.K.T.Y.h.T.g.( 5XrXM.N Y.F.L.R.;.K.g.I.a.+.",
"Y C.<.6 >.r.6 ^ P.L.F.R.Q.s.s.R.@.8 m.C.[ 7 :.w.Y 6.K.R.R.G.J.1.",
"u u ; S ;.N.6.M.a.>.a.-XP.U.+.2.O.= f j 9 A h.g.-.,.@.g.;X#X;.^ ",
"r o < N 2.B.P.:XpX7X%.-.-.*.s.R.I.7 O @ O B e.L.:.E.R.I.#XyXiXB.",
"I.I.:.;.L.$.C Z.`.3X' *.F.;.T.*X>.2.h.;.$.h.P.^.W.B.Y.h.} '.`.,X",
">.Y.;.W.T.g.0 n y.8.= +.>.@.,.L.e.2.W.W.g.g.Y.L.I.R.K.] - J 7.}.",
"@XI.a.=X-.m.E d f a 4 6.N.@.L.>.$.L.T.D.L.<X;.k.G.R.f.O.: a k y ",
"0XeXh.<X8X0XoXm 5 & B B.4XQ.;.-.>.S.-.&.$.:X8X-Xf.<XeXOXM e w 3 ",
"/.rX[ ..uX].4.I J.g.q.1.g.@.;.R.1XN.L.Y.B c.-X6X) l.yX6.) R.W.x.",
"{.9.H x V.8.) 6 &.-.T g.R.P.Q.L.t.T &.>.6 = 4.| a { m.1.z _ x.q ",
"a z a + h p o | /.N.;.W #X=XW.h.L.>.1.N.T # z k X p s @ # l z i ",
"u.u.5 , = & B m.3XQ.;.&.;.L.;.;.>.-.h.=XN.8.b.( ^ 2 = & F v.p.M ",
"G.*XW.L.E.g.L.2.K.~.P.E.Q.P.L.-XK.g.=X&XP.w.g.^.L.).>.g.r.2.K.W ",
"<.P.T.~.-.K.Y.Y.T.Q.~.Y.J.Y.%XS.L.g.J.J.P.W.g.R.Q.W.J.Q.^.W.P.Q ",
"S ] ;.H.P.W.J.Q.L.>.J.P.W.*XH.K.W.F.W.Y.T.W.+X*.a.Q.I.g.P.K.R.7.",
"OX>XA.%.-.g.d.E.wXE.%.;.:.F.:.=.>.>.:.&.$.E.eX9Xf.Q.wX+X%.-.-.w.",
"<.rXV.) T.W.J 7.#X1X5.h.P.Y ,.T.;.` Q.K.S Z.8X`.{ '.(.>X~ U.P.q.",
"Z {.v 6 L.D.V J A.x.` w.K.Y Y :.&.V h.L.U }.|..X*  Xv.7.7 e.L.$.",
"+ z # x.2.1.W - h i 4 <.<.e.6.,.W R.#X7.o.* g , 4 a f   | 9.T I ",
"b.x.j.f.R.h.;.! r r 7 7.#X#X5.C.d.l.5X;Xj.! X.z.^ 7 2 5 f.3XQ.h.",
"y.5XK. .W.&X' ( B.e.` <.1.J M.2X<.} B.0.F  .Q.>X' 7.h.Y 5._.A.2.",
"|.0.J = m.m.> D m.e.* <.1.v H 3.0 z R L.D b k.M.@ C q.Z - [.P P "
};
