/* XPM */
static char *_34557c617054aeaa705d03538f56df4foTuvUur4hGiDm73[] = {
/* columns rows colors chars-per-pixel */
"32 32 245 2 ",
"   c #2C1F2D",
".  c #371D2D",
"X  c #182839",
"o  c #153B3B",
"O  c #2D282E",
"+  c #382A2A",
"@  c #243B38",
"#  c #3C3935",
"$  c #501F28",
"%  c #59282B",
"&  c #47352E",
"*  c #69312B",
"=  c #17433B",
"-  c #154B3C",
";  c #3E532A",
":  c #284835",
">  c #3B4637",
",  c #29593B",
"<  c #395731",
"1  c #1E703C",
"2  c #336D37",
"3  c #2C733E",
"4  c #4B5C2D",
"5  c #4D4830",
"6  c #555A3A",
"7  c #725829",
"8  c #7B5632",
"9  c #486529",
"0  c #556629",
"q  c #50752D",
"w  c #5D7531",
"e  c #69722F",
"r  c #0D3D46",
"t  c #0C3C53",
"y  c #184845",
"u  c #0B584E",
"i  c #165847",
"p  c #245843",
"a  c #3C5847",
"s  c #186745",
"d  c #1F7343",
"f  c #0A6D56",
"g  c #136C54",
"h  c #147B58",
"j  c #2A6F44",
"k  c #227952",
"l  c #067861",
"z  c #584743",
"x  c #4D5245",
"c  c #605F53",
"v  c #486E4D",
"b  c #5C6646",
"n  c #706F4E",
"m  c #6D7468",
"M  c #BB3C2F",
"N  c #914C2C",
"B  c #AF4A29",
"V  c #BA482A",
"C  c #A46224",
"Z  c #A87B21",
"A  c #D6761D",
"S  c #C5442D",
"D  c #CE512C",
"F  c #D16A28",
"G  c #F26E2F",
"H  c #EB6A31",
"J  c #F16E31",
"K  c #F37231",
"L  c #F17732",
"P  c #97784E",
"I  c #3B873B",
"U  c #3B933B",
"Y  c #719F1F",
"T  c #5A972E",
"R  c #489939",
"E  c #519134",
"W  c #6C8E2A",
"Q  c #739237",
"!  c #5EB52E",
"~  c #48A73A",
"^  c #4CAD3B",
"/  c #57A835",
"(  c #51AE3B",
")  c #4EB23D",
"_  c #5DBA34",
"`  c #54B33C",
"'  c #58B538",
"]  c #69A725",
"[  c #63BC2E",
"{  c #69BA2C",
"}  c #79B927",
"|  c #76A831",
" . c #6BB634",
".. c #62BA33",
"X. c #64BB3B",
"o. c #6CBD3A",
"O. c #73BD39",
"+. c #69C22C",
"@. c #7BCC23",
"#. c #75C42B",
"$. c #75C929",
"%. c #7BCC2A",
"&. c #7DD323",
"*. c #66C031",
"=. c #6AC333",
"-. c #78C535",
";. c #73C33D",
":. c #188658",
">. c #1C9258",
",. c #2A854B",
"<. c #37864B",
"1. c #2C954D",
"2. c #27994E",
"3. c #389A47",
"4. c #339C4A",
"5. c #248D57",
"6. c #239253",
"7. c #2D985C",
"8. c #389A59",
"9. c #3BA244",
"0. c #37A248",
"q. c #3CA14A",
"w. c #39A550",
"e. c #45974A",
"r. c #5F9E4B",
"t. c #439A53",
"y. c #6D9653",
"u. c #4AA343",
"i. c #45A845",
"p. c #58AB47",
"a. c #4BB243",
"s. c #5CB54B",
"d. c #47A655",
"f. c #59AD52",
"g. c #67B646",
"h. c #67A85B",
"j. c #67B557",
"k. c #79B655",
"l. c #419C61",
"z. c #4C9474",
"x. c #50A66B",
"c. c #72AE65",
"v. c #7BC443",
"b. c #7EC848",
"n. c #D38418",
"m. c #F29418",
"M. c #FCAB0C",
"N. c #FDB606",
"B. c #FFBC0E",
"V. c #FBA312",
"C. c #FDB513",
"Z. c #DD8733",
"A. c #F68527",
"S. c #F3823B",
"D. c #F8B12D",
"F. c #8BCF1F",
"G. c #84D41E",
"H. c #88DA1C",
"J. c #94DC1C",
"K. c #9FE318",
"L. c #B0E81D",
"P. c #84CB26",
"I. c #84CA2A",
"U. c #82D523",
"Y. c #89D32A",
"T. c #96DA28",
"R. c #87C838",
"E. c #9ACA3B",
"W. c #89D237",
"Q. c #97D337",
"!. c #A4D82D",
"~. c #A5DC36",
"^. c #AAD53C",
"/. c #A7D939",
"(. c #98E123",
"). c #ABE629",
"_. c #B8EA29",
"`. c #A7E335",
"'. c #ACE233",
"]. c #BCE33B",
"[. c #FFC000",
"{. c #FEC21A",
"}. c #FEC428",
"|. c #FDCA38",
" X c #C8EE34",
".X c #82844A",
"XX c #928D51",
"oX c #AB9D4B",
"OX c #8EB84C",
"+X c #86B854",
"@X c #AFAB56",
"#X c #958B70",
"$X c #A59371",
"%X c #B6A96A",
"&X c #D29B40",
"*X c #F79849",
"=X c #F5AB55",
"-X c #CCB261",
";X c #F8B261",
":X c #88C746",
">X c #94CC45",
",X c #9AD345",
"<X c #91CD56",
"1X c #A7C749",
"2X c #A8D946",
"3X c #B6DB47",
"4X c #A9D556",
"5X c #B3DD56",
"6X c #AFE043",
"7X c #9CD373",
"8X c #B6D469",
"9X c #C8D150",
"0X c #FAD749",
"qX c #FDD457",
"wX c #D1EB52",
"eX c #C9CB78",
"rX c #F2D273",
"tX c #D0E46B",
"yX c #FFE96F",
"uX c #F9F668",
"iX c #FBE979",
"pX c #8CBA91",
"aX c #B3AF90",
"sX c #B2A4AE",
"dX c #8BC788",
"fX c #9DC3A4",
"gX c #C9DE94",
"hX c #FCD885",
"jX c #CBE190",
"kX c #F7EF89",
"lX c #FEFA97",
"zX c #D7CEB0",
"xX c #E1CFB8",
"cX c #D8E8A8",
"vX c #FEE9AF",
"bX c #EEEBB6",
"nX c #FEFBB7",
"mX c #DACED0",
"MX c #E4D2D0",
"NX c #FEF8C8",
"BX c #FDF9D8",
"VX c #FEF7E4",
"CX c #FEFCE3",
"ZX c #FFFFF6",
"AX c #FFFFFE",
/* pixels */
"gX+X6 0 T y m z Y 4 4 | n v 1Xv y a y.v n } a c 5 XX@X> 0 a #XgX",
"c eXwXE 7.5.T Y #.R R ,X9Xp.5Xl.:.:XR / } i.p.E U 8X8XT I.k # b ",
"# h.kX'.j.2XY.U.%.:Xs.c.uX,X].8.O.2Xs.W.i.;.4X8.d.6X].R 3.=.P.q ",
"m h.f.].' <Xj.R.f.tX5X' >Xf.X.a.%.p.].k.o.wXd.4X3XI.} g _ ).v.i ",
"pX8XE.u.q.o.o.~.I.U...[ { g.7.$.U.` X.` J.~.s.:X5.:.h p.(.p.u X ",
"y p E.( 6.$.Q.Q.G.;.:X*.J.~.g.W W { >.=.G.@.%.6.2.) a.'.R.,.E 5 ",
"z .X/ 4.1.>XcXjX%.x.wXJ.' [ Q $XN 0 _ H.~.;.' 8.Q.%.$.$.6.../ , ",
"z 9XL.%.4.h.cXaXu.e.R.T.*.#.n xXZ.& ] H.v.s.4./.3X9.+.+.` 4.u X ",
"n c.j.=.2Xb.OXy.t.8XR.4._ Q aXBXD.N ; $.a.7X~.T.4._ i.=.U.6.3.< ",
"9XtXwX X_.T.Y.I.%.b.;.) ~ n mXCX}.n.# E ) ,X;.@.+._ 9.,X1X_ :.i ",
"5 b r. .~.).wXwX(.G.` ` w %XCXVX}.M.N ; +.( +.T.,X^ 2XbXzXQ d @ ",
"x 8X3X#.X.T.T.s.} W w w 5 %XCXVX}.M.B + 9 9 q F.O.~ T.jXaX| / i ",
"<.e.d.i...Q n b m sXaXoXoXrXCXVX}.M.F C Z Z Z e 6 6 Y !.y.4.I @ ",
"& 6 j.Y.W P zXmXMXAXZXNXNXnXCXVX}.M.=XyXyXyXyXeX-X-X7 E ~ %.I.q ",
"5 OXwX,X2 5 &XqXhXvXVXAXAXAXBXNX}.|.lXlXlXkXrX;X*XF + i ' ( g o ",
".Xk.:XR.~ 2 & n.B.{.|.qXhXvXNXlXqXiXrX;X*XS.K G S % r f 1.1.I : ",
".X+XQ.H.@.@.2 * A C.B.B.B.{.qXhX=XL J J G K J S % y s U @.U.~ s ",
"XXOXi.` '.).G.2 % F C.{.0XiXNX;XV.L J J J H V $ y ,.! G.T.^ l r ",
"e.!.T.i.d.R.!.+., * Z.yXnXCXhXA.N.V.J J D S $ = h 6.~ U. X%.3.y ",
"x : / G.R.8XpXq.^ 2 #XBXAXvXD.A.N.N.A.J H M . u 6.p.~.Y.' ^ { q ",
"c.<.3.@.3XbXcXR.' ] #XNXBX}.V.A.N.[.N.L J M . d @.`.tXj._ [ 3 @ ",
"> j 1.I.Y.E.E.&.P.W @XnXqXN.V.H m.N.[.V.J S . s ~ &._ ' J.@.R 9 ",
"# b <X_.R.{ q.g.} 8 0XqXB.M.F * B m.N.N.m.D . s ..0.` ....v.y.; ",
"#XtX4X:X:X1X` :X} 8 D.C.A B % X   % V m.M.D . s ^ ) [ G.` 9X1Xq ",
"dXdX6.8.fXzXOXp./ 8 n.V * O - f s =   * S A & s q.f.^ Y.).o.g t ",
"p j ) OXzXMXXXE.e.* 7   o d U 3.[ 3.1 = O N + u f. XO.u.-.Q.| < ",
"& oX<X9.k.%X/ ) } 9 o u d ~ g.X.@.T.R.R I : X s ` I.#.( ..4.,.p ",
"z .Xt.6.-.O.0.o.2X' / / #.=.Q.d.^.T.'.`.~.! U  .'.^ >.1.( 6.I > ",
"z .Xo.` i.1.Q.!.j.d.Q.%. X:X%.>X~...H.W.2X-.P.Y.>XK.U.0.3.3.R < ",
"aXtX;.4.q.%.v.d.5.2Xk.` R.q.X.wXg.~.$.6.g.e.u.#.u.J.=._ ` $.R = ",
"z.l.h l ' ..h i.t.^.:.:.:.:.w.R.t.E.u.0.:.h 5.( _ 9.3.X.1.R *.3 ",
"@ X X y >.h y I , 4.u X d p ,.2.:.,., 6.f y <.p 5.u i 6.h X , s "
};
