/* XPM */
static char *_37a36089ec048f6df9e4a076e6e2251oOy898Sh0InXH0vp[] = {
/* columns rows colors chars-per-pixel */
"32 32 53 1 ",
"  c gray1",
". c #060606",
"X c gray3",
"o c #0E0E0E",
"O c #131313",
"+ c gray9",
"@ c #181818",
"# c #1D1D1D",
"$ c #202020",
"% c #272727",
"& c gray17",
"* c #2C2C2C",
"= c gray19",
"- c #373737",
"; c #393939",
": c #3C3C3C",
"> c #434343",
", c gray27",
"< c #4B4B4B",
"1 c gray30",
"2 c #535353",
"3 c gray33",
"4 c #5B5B5B",
"5 c gray36",
"6 c gray39",
"7 c #676767",
"8 c #6A6A6A",
"9 c #6D6D6D",
"0 c #727272",
"q c #777777",
"w c gray48",
"e c gray49",
"r c #818181",
"t c #848484",
"y c #888888",
"u c #8E8E8E",
"i c #909090",
"p c #979797",
"a c #9A9A9A",
"s c #9F9F9F",
"d c #A0A0A0",
"f c #A4A4A4",
"g c gray66",
"h c #AFAFAF",
"j c #B7B7B7",
"k c gray73",
"l c gray",
"z c #C1C1C1",
"x c gray77",
"c c #C8C8C8",
"v c #CECECE",
"b c #D0D0D0",
"n c gray83",
/* pixels */
"vzrreavvbserelvvxreepvvbferekvvv",
"vxttrdnbnfrtrxnnctrranbngrtrznvv",
"bg3337yyy8233eyyr3337yyy9233eykv",
"nq               .        .   ub",
"u9>:X&,>,,,,,>>>>,:.*,>>,,,,>>qu",
"r6:;X%::::::::::::;.&:::::::::8r",
"r5*&.#************&.#*********7r",
"r5*&.#************&.#*********7r",
"le**.#============&.$========*il",
"nr++ o@@+++@@++++++ o@++++@@++an",
"nwXXoXXXXXX. XXXXXooXXXXXX. XXib",
"np,<<<11<<1&o<<<<111<<<<<1%o<<gn",
"d0-;;;;;;;;#X-;;;;;;;;;;;;#X;-ed",
"r4&********@X*************+X**7r",
"r5*********@X************=+X**7r",
"e4**=*****=@X******===***=+X**7e",
"g7oOOOOOOOO. OOOOOoOOOOOOO. OOqg",
"nrO+++X ++++++++++O o+++++++++an",
"bp<111&o<11111<111,X=1111111<<fb",
"nu=-=-#X=========-*.$===--=-==dn",
"jw&***@X**********&.#*********yj",
"e4***=@X**********&.#*********7e",
"r5***=@X*===*****=&.$=*=******7r",
"r1.XXX  XXXXXXXXXX. .XXXXXXXXX4r",
"p6####$$###$+ @$###$$#$###### 7p",
"bp<<<<<<<<<1;.>1<<<<<<1<<<<1,Xun",
"by*=========% &=============*.ub",
"ny&*********% &*************&.un",
"cr&*********$ %*************& tc",
"t6-;;-==--;;*o*--;;;-===-;;;=o5t",
"etjjkd0q0skjje0qejkkf0q0akjkt9wr",
"euvvbjerehbbbirryvbbkeregbbbprrr"
};
